{"title":"BBC Proms 2012 - 27. Wagner's Siegfried Idyll and Bruckner's 8th","uid":7560036,"size":1350979945,"categoryP":"video","categoryS":"music_videos","magnet":"?xt=urn:btih:f6b31d18d42729b5687f2d3bb316d7abd9573306&amp;dn=BBC+Proms+2012+-+27.+Wagner%27s+Siegfried+Idyll+and+Bruckner%27s+8th&amp;tr=udp%3A%2F%2Ftracker.openbittorrent.com%3A80&amp;tr=udp%3A%2F%2Fopen.demonii.com%3A1337&amp;tr=udp%3A%2F%2Ftracker.coppersurfer.tk%3A6969&amp;tr=udp%3A%2F%2Fexodus.desync.com%3A6969","seeders":0,"leechers":0,"uploader":"deandominic","files":2,"time":1345718938,"description":"BBC Proms 2012 - 27. Wagner's Siegfried Idyll and Bruckner's 8th Symphony\n\nWagner\nSiegfried Idyll (18 mins)\n\nINTERVAL\n\nBruckner\nSymphony No. 8 in C minor (80 mins)\ned. Nowak, 1955\n\nBBC Scottish Symphony Orchestra\nDonald Runnicles conductor\n\nn their first appearance this season, Donald Runnicles and the BBC Scottish Symphony Orchestra present two works by composers for whom he has a particular affinity. Wagner's gift to his wife, Cosima, is presented in its pared down original orchestration, much as she would have heard it that Christmas morning in 1870.\n\nThe Royal Albert Hall is an ideal venue for Bruckner's symphonic revelations. The Eighth Symphony, arguably the greatest of them all, remains a huge and glorious challenge.\n\nVideo\nID                                       : 1\nFormat                                   : AVC\nFormat/Info                              : Advanced Video Codec\nFormat profile                           : &lt;a class=&quot;__cf_email__&quot; href=&quot;/cdn-cgi/l/email-protection&quot; data-cfemail=&quot;e7aa868e89a7abd4c9d7&quot;&gt;[email&amp;#160;protected]&lt;/a&gt;&lt;script data-cfhash='f9e31' type=&quot;text/javascript&quot;&gt;\n/* &lt;![CDATA[ */!function(){try{var t=&quot;currentScript&quot;in document?document.currentScript:function(){for(var t=document.getElementsByTagName(&quot;script&quot;),e=t.length;e--;)if(t[e].getAttribute(&quot;data-cfhash&quot;))return t[e]}();if(t&amp;&amp;t.previousSibling){var e,r,n,i,c=t.previousSibling,a=c.getAttribute(&quot;data-cfemail&quot;);if(a){for(e=&quot;&quot;,r=parseInt(a.substr(0,2),16),n=2;a.length-n;n+=2)i=parseInt(a.substr(n,2),16)^r,e+=String.fromCharCode(i);e=document.createTextNode(e),c.parentNode.replaceChild(e,c)}t.parentNode.removeChild(t);}}catch(u){}}()/* ]]&gt; */&lt;/script&gt;\nFormat settings, CABAC                   : Yes\nFormat settings, ReFrames                : 4 frames\nCodec ID                                 : avc1\nCodec ID/Info                            : Advanced Video Coding\nDuration                                 : 1h 59mn\nBit rate mode                            : Constant\nBit rate                                 : 1 404 Kbps\nWidth                                    : 832 pixels\nHeight                                   : 468 pixels\nDisplay aspect ratio                     : 16:9\nFrame rate mode                          : Constant\nFrame rate                               : 25.000 fps\nStandard                                 : PAL\nColor space                              : YUV\nChroma subsampling                       : 4:2:0\nBit depth                                : 8 bits\nScan type                                : Progressive\nBits/(Pixel*Frame)                       : 0.144\nStream size                              : 1.17 GiB (93%)\n\nAudio\nID                                       : 2\nFormat                                   : AAC\nFormat/Info                              : Advanced Audio Codec\nFormat profile                           : HE-AAC / LC\nCodec ID                                 : 40\nDuration                                 : 1h 59mn\nBit rate mode                            : Constant\nBit rate                                 : 96.0 Kbps\nChannel(s)                               : 2 channels\nChannel positions                        : Front: L R\nSampling rate                            : 48.0 KHz / 24.0 KHz\nCompression mode                         : Lossy\nStream size                              : 81.2 MiB (6%)\n","torrent":{"xt":"urn:btih:f6b31d18d42729b5687f2d3bb316d7abd9573306","amp;dn":"BBC+Proms+2012+-+27.+Wagner%27s+Siegfried+Idyll+and+Bruckner%27s+8th","amp;tr":["udp%3A%2F%2Ftracker.openbittorrent.com%3A80","udp%3A%2F%2Fopen.demonii.com%3A1337","udp%3A%2F%2Ftracker.coppersurfer.tk%3A6969","udp%3A%2F%2Fexodus.desync.com%3A6969"],"infoHash":"f6b31d18d42729b5687f2d3bb316d7abd9573306","infoHashBuffer":{"type":"Buffer","data":[246,179,29,24,212,39,41,181,104,127,45,59,179,22,215,171,217,87,51,6]},"announce":[],"urlList":[]}}